<svg xmlns="http://www.w3.org/2000/svg" viewBox="0 0 200 120" preserveAspectRatio="xMidYMid slice"><defs><linearGradient id="bg" x1="0" y1="0" x2="0" y2="1">
        <stop offset="0%" stop-color="#fff5d2"/><stop offset="100%" stop-color="#fffbed"/>
      </linearGradient></defs>
      <rect width="200" height="120" fill="url(#bg)"/>
  <rect x="0" y="100" width="200" height="20" fill="#5e8b56" opacity=".55"/>
  <g opacity=".9" fill="none" stroke="#5e3fab" stroke-width="2">
    <circle cx="100" cy="60" r="40"/>
    <line x1="60" y1="60" x2="140" y2="60"/>
    <line x1="100" y1="20" x2="100" y2="100"/>
    <line x1="72" y1="32" x2="128" y2="88"/>
    <line x1="128" y1="32" x2="72" y2="88"/>
  </g>
  <g opacity=".95">
    <circle cx="100" cy="20" r="5" fill="#e85b4a"/>
    <circle cx="100" cy="100" r="5" fill="#ffd24a"/>
    <circle cx="60" cy="60" r="5" fill="#5e8b56"/>
    <circle cx="140" cy="60" r="5" fill="#5e3fab"/>
    <circle cx="72" cy="32" r="4" fill="#e85b4a"/>
    <circle cx="128" cy="32" r="4" fill="#ffd24a"/>
    <circle cx="72" cy="88" r="4" fill="#5e8b56"/>
    <circle cx="128" cy="88" r="4" fill="#5e3fab"/>
  </g>
  <line x1="100" y1="100" x2="86" y2="115" stroke="#7a4a2a" stroke-width="2"/>
  <line x1="100" y1="100" x2="114" y2="115" stroke="#7a4a2a" stroke-width="2"/>
</svg>
