<svg xmlns="http://www.w3.org/2000/svg" viewBox="0 0 200 120" preserveAspectRatio="xMidYMid slice"><defs><linearGradient id="bg" x1="0" y1="0" x2="0" y2="1">
        <stop offset="0%" stop-color="#cfe3ff"/><stop offset="100%" stop-color="#eaf3ff"/>
      </linearGradient></defs>
      <rect width="200" height="120" fill="url(#bg)"/>
  <rect x="0" y="85" width="200" height="35" fill="#a8d5a4" opacity=".75"/>
  <!-- 栅栏 -->
  <g stroke="#9a6a3c" stroke-width="1.5" opacity=".75">
    <line x1="0" y1="90" x2="200" y2="90"/>
    <line x1="0" y1="100" x2="200" y2="100"/>
    <line x1="20" y1="84" x2="20" y2="110"/>
    <line x1="60" y1="84" x2="60" y2="110"/>
    <line x1="100" y1="84" x2="100" y2="110"/>
    <line x1="140" y1="84" x2="140" y2="110"/>
    <line x1="180" y1="84" x2="180" y2="110"/>
  </g>
  <!-- 奶牛 -->
  <g opacity=".85">
    <ellipse cx="80" cy="78" rx="18" ry="9" fill="#fff" stroke="#333" stroke-width="1"/>
    <circle cx="64" cy="74" r="6" fill="#fff" stroke="#333" stroke-width="1"/>
    <ellipse cx="86" cy="76" rx="3" ry="2" fill="#3a3a3a"/>
    <ellipse cx="74" cy="80" rx="3" ry="2" fill="#3a3a3a"/>
    <line x1="68" y1="86" x2="68" y2="92" stroke="#333" stroke-width="1.2"/>
    <line x1="92" y1="86" x2="92" y2="92" stroke="#333" stroke-width="1.2"/>
    <ellipse cx="135" cy="80" rx="14" ry="7" fill="#fff" stroke="#333" stroke-width="1"/>
    <circle cx="123" cy="77" r="5" fill="#fff" stroke="#333" stroke-width="1"/>
  </g>
</svg>
