<svg xmlns="http://www.w3.org/2000/svg" viewBox="0 0 200 120" preserveAspectRatio="xMidYMid slice"><defs><linearGradient id="bg" x1="0" y1="0" x2="0" y2="1">
        <stop offset="0%" stop-color="#cfe3ff"/><stop offset="100%" stop-color="#eaf3ff"/>
      </linearGradient></defs>
      <rect width="200" height="120" fill="url(#bg)"/>
  <rect x="0" y="80" width="200" height="40" fill="#e9c45a" opacity=".55"/>
  <g stroke="#b2802a" stroke-width="1.4" opacity=".7">
    <line x1="20" y1="115" x2="20" y2="92"/><line x1="40" y1="118" x2="40" y2="90"/>
    <line x1="60" y1="116" x2="60" y2="88"/><line x1="80" y1="118" x2="80" y2="92"/>
    <line x1="100" y1="115" x2="100" y2="86"/><line x1="120" y1="118" x2="120" y2="90"/>
    <line x1="140" y1="115" x2="140" y2="88"/><line x1="160" y1="118" x2="160" y2="92"/>
    <line x1="180" y1="115" x2="180" y2="86"/>
  </g>
  <g fill="#d29a3a" opacity=".75">
    <ellipse cx="20" cy="86" rx="3" ry="5"/><ellipse cx="40" cy="84" rx="3" ry="5"/>
    <ellipse cx="60" cy="82" rx="3" ry="5"/><ellipse cx="80" cy="86" rx="3" ry="5"/>
    <ellipse cx="100" cy="80" rx="3" ry="5"/><ellipse cx="120" cy="84" rx="3" ry="5"/>
    <ellipse cx="140" cy="82" rx="3" ry="5"/><ellipse cx="160" cy="86" rx="3" ry="5"/>
    <ellipse cx="180" cy="80" rx="3" ry="5"/>
  </g>
  <circle cx="170" cy="28" r="13" fill="#ffd773" opacity=".85"/>
</svg>
